<svg width="42" height="42" viewBox="0 0 42 42" fill="none" xmlns="http://www.w3.org/2000/svg">
<path d="M20.8082 10.105C18.6951 10.105 16.6294 10.7305 14.8724 11.9023C13.1154 13.0741 11.746 14.7396 10.9373 16.6882C10.1286 18.6369 9.91706 20.7812 10.3293 22.8498C10.7415 24.9184 11.7591 26.8187 13.2534 28.3101C14.7476 29.8013 16.6513 30.817 18.7238 31.2285C20.7965 31.64 22.9446 31.4288 24.8969 30.6217C26.8493 29.8146 28.5179 28.4477 29.6918 26.6941C30.8661 24.9402 31.4925 22.8784 31.4925 20.7692C31.4959 19.3678 31.222 17.9796 30.6862 16.6843C30.1505 15.3888 29.3637 14.2118 28.3709 13.2209C27.378 12.2299 26.1988 11.4445 24.9011 10.9098C23.6031 10.3751 22.2123 10.1016 20.8082 10.105ZM20.8082 27.714C19.4321 27.714 18.0869 27.3066 16.9426 26.5435C15.7986 25.7806 14.9067 24.696 14.3801 23.4269C13.8535 22.1579 13.7157 20.7617 13.9842 19.4143C14.2526 18.0673 14.9153 16.8297 15.8883 15.8585C16.8613 14.8873 18.1012 14.2259 19.4508 13.9579C20.8007 13.69 22.1995 13.8275 23.471 14.3531C24.7424 14.8788 25.8291 15.769 26.5934 16.9108C27.358 18.053 27.7661 19.3956 27.7661 20.7692C27.7661 22.611 27.033 24.3776 25.7282 25.68C24.4234 26.9823 22.6535 27.714 20.8082 27.714ZM34.4372 9.66283C34.4372 10.1773 34.2845 10.6802 33.9981 11.1079C33.7117 11.5356 33.3047 11.869 32.8286 12.0659C32.3525 12.2627 31.8284 12.3142 31.3229 12.2139C30.8173 12.1135 30.3532 11.8658 29.9886 11.502C29.6243 11.1383 29.376 10.6748 29.2754 10.1703C29.1748 9.66572 29.2264 9.14276 29.4237 8.66747C29.6209 8.19221 29.955 7.78598 30.3834 7.50018C30.8121 7.21435 31.3158 7.0618 31.8313 7.0618C32.5224 7.0618 33.1853 7.33585 33.6739 7.82364C34.1628 8.31141 34.4372 8.97301 34.4372 9.66283ZM41.4992 12.2639C41.5751 9.03034 40.3667 5.8981 38.1376 3.55041C35.798 1.29711 32.6584 0.0623207 29.4078 0.117046C26.0201 -0.0390155 15.5964 -0.0390155 12.2087 0.117046C8.97012 0.0470527 5.83408 1.25242 3.4789 3.47238C1.2499 5.82007 0.0414862 8.95231 0.117266 12.1858C-0.0390888 15.5671 -0.0390888 25.9713 0.117266 29.3526C0.0414862 32.5862 1.2499 35.7184 3.4789 38.0661C5.83408 40.286 8.97012 41.4914 12.2087 41.4214C15.6485 41.6295 25.968 41.6295 29.4078 41.4214C32.6475 41.4971 35.7855 40.291 38.1376 38.0661C40.3667 35.7184 41.5751 32.5862 41.4992 29.3526C41.6556 25.9713 41.6556 15.5671 41.4992 12.1858V12.2639ZM37.0692 33.0721C36.7153 33.9668 36.1813 34.7791 35.4999 35.4593C34.8185 36.1395 34.0046 36.6724 33.1082 37.0257C29.0628 37.8421 24.9272 38.122 20.8082 37.858C16.6982 38.1222 12.571 37.8424 8.53439 37.0257C7.63813 36.6724 6.82407 36.1395 6.14273 35.4593C5.46136 34.7791 4.92722 33.9668 4.57339 33.0721C3.4789 30.315 3.71344 23.8124 3.71344 20.7952C3.71344 17.778 3.4789 11.2495 4.57339 8.51838C4.91724 7.61496 5.44757 6.79382 6.12996 6.10821C6.81234 5.42263 7.63154 4.88791 8.53439 4.5388C12.571 3.72202 16.6982 3.44215 20.8082 3.70647C24.9272 3.4426 29.0628 3.72247 33.1082 4.5388C34.0046 4.89197 34.8185 5.4251 35.4999 6.10519C36.1813 6.78526 36.7153 7.5978 37.0692 8.49237C38.1637 11.2495 37.9031 17.752 37.9031 20.7692C37.9031 23.7864 38.1637 30.315 37.0692 33.0461V33.0721Z" fill="#CFD8DC"/>
</svg>
