<svg width="48" height="49" viewBox="0 0 48 49" fill="none" xmlns="http://www.w3.org/2000/svg">
<path d="M11.1998 11.8134H37.3335L33.7779 24.0377H13.1143M35.5557 31.023H14.2224L10.6668 8.32074H5.3335M16.0002 38.0084C16.0002 38.9729 15.2042 39.7547 14.2224 39.7547C13.2406 39.7547 12.4446 38.9729 12.4446 38.0084C12.4446 37.0439 13.2406 36.262 14.2224 36.262C15.2042 36.262 16.0002 37.0439 16.0002 38.0084ZM35.5557 38.0084C35.5557 38.9729 34.7598 39.7547 33.7779 39.7547C32.7961 39.7547 32.0002 38.9729 32.0002 38.0084C32.0002 37.0439 32.7961 36.262 33.7779 36.262C34.7598 36.262 35.5557 37.0439 35.5557 38.0084Z" stroke="#DCDCDD" stroke-width="3" stroke-linecap="round" stroke-linejoin="round"/>
</svg>
